<?xml version="1.0" standalone="no"?>
<!DOCTYPE svg PUBLIC "-//W3C//DTD SVG 20010904//EN"
 "http://www.w3.org/TR/2001/REC-SVG-20010904/DTD/svg10.dtd">
<svg version="1.0" xmlns="http://www.w3.org/2000/svg"
 width="430.000000pt" height="430.000000pt" viewBox="0 0 430.000000 430.000000"
 preserveAspectRatio="xMidYMid meet">
<metadata>
Created by potrace 1.11, written by Peter Selinger 2001-2013
</metadata>
<g transform="translate(0.000000,430.000000) scale(0.100000,-0.100000)"
fill="#000000" stroke="none">
<path d="M3230 3999 c-69 -42 -127 -95 -306 -273 -226 -227 -360 -380 -536
-614 -83 -110 -108 -137 -143 -152 -23 -10 -52 -32 -65 -50 -12 -17 -42 -46
-65 -63 -24 -18 -101 -78 -171 -133 -197 -155 -561 -412 -643 -453 -64 -33
-83 -28 -168 47 -191 165 -353 278 -513 356 -92 45 -113 51 -180 54 -75 4 -77
3 -103 -28 -15 -17 -27 -41 -27 -53 0 -70 130 -248 296 -406 148 -141 449
-386 555 -450 46 -28 65 -27 139 10 155 78 463 433 779 898 57 83 105 151 108
151 3 0 29 -21 57 -47 29 -27 115 -88 192 -138 446 -287 626 -412 744 -519
175 -158 297 -349 269 -422 -11 -31 -175 -169 -393 -332 -484 -362 -625 -530
-592 -706 11 -58 79 -148 163 -215 111 -87 342 -198 563 -269 206 -67 515
-132 625 -132 98 0 167 35 210 104 56 92 35 238 -48 324 -62 65 -129 91 -612
236 -266 80 -388 127 -392 148 -2 7 31 54 73 103 280 334 385 497 456 708 53
160 34 249 -96 450 -164 255 -388 494 -635 676 -150 110 -239 153 -365 175
l-68 12 157 109 c267 183 419 282 545 354 112 64 254 131 279 131 6 0 64 -52
130 -116 274 -264 504 -419 640 -431 57 -5 61 -4 92 26 28 28 31 37 26 73 -9
66 -70 176 -155 278 -155 188 -388 417 -575 568 -103 82 -128 83 -247 11z"/>
<path d="M1725 3881 c-61 -15 -106 -45 -159 -102 -139 -150 -171 -352 -94
-589 60 -185 137 -265 267 -277 130 -12 257 41 372 156 66 66 78 83 87 126 21
100 -16 275 -89 423 -48 98 -147 209 -213 241 -50 23 -128 33 -171 22z"/>
</g>
</svg>
